<svg width="545" height="307" xmlns="http://www.w3.org/2000/svg" xmlns:xlink="http://www.w3.org/1999/xlink" xml:space="preserve" overflow="hidden"><defs><clipPath id="clip0"><rect x="0" y="0" width="545" height="307"/></clipPath><linearGradient x1="200.514" y1="51.2487" x2="201.597" y2="52.9825" gradientUnits="userSpaceOnUse" spreadMethod="reflect" id="fill1"><stop offset="0" stop-color="#9CAFBF"/><stop offset="0.5" stop-color="#8FA3B4"/><stop offset="1" stop-color="#7A95AB"/></linearGradient><linearGradient x1="276.247" y1="147.491" x2="276.247" y2="162.137" gradientUnits="userSpaceOnUse" spreadMethod="reflect" id="fill2"><stop offset="0" stop-color="#9B9B9B"/><stop offset="0.5" stop-color="#8E8E8E"/><stop offset="1" stop-color="#797979"/></linearGradient></defs><g clip-path="url(#clip0)"><path d="M0 0 545 0 545 306.562 0 306.562Z" fill="#FFFFFF" transform="scale(1 1.00143)"/><path d="M129.61 95.5191 271.417 6.97855 272.5 8.71213 130.693 97.2525Z" stroke="#156082" stroke-width="0.567709" stroke-miterlimit="8" fill="url(#fill1)" fill-rule="evenodd" transform="scale(1 1.00143)"/><path d="M271.989 8.00469 279 154.307" stroke="#000000" stroke-width="0.851562" stroke-miterlimit="8" fill="none" fill-rule="evenodd" transform="scale(1 1.00143)"/><path d="M130.289 96.5672 278.566 154.329" stroke="#000000" stroke-width="0.851562" stroke-miterlimit="8" fill="none" fill-rule="evenodd" transform="scale(1 1.00143)"/><path d="M268.923 11.0703 275.651 144.732" stroke="#FFFF00" stroke-width="0.851562" stroke-miterlimit="8" fill="none" fill-rule="evenodd" transform="scale(1 1.00143)"/><path d="M262.111 15.1578 275.567 145.958" stroke="#FFFF00" stroke-width="0.851562" stroke-miterlimit="8" fill="none" fill-rule="evenodd" transform="scale(1 1.00143)"/><path d="M275.73 148.789 253.936 21.2891" stroke="#FFFF00" stroke-width="0.851562" stroke-miterlimit="8" fill="none" fill-rule="evenodd" transform="scale(1 1.00143)"/><path d="M275.635 149.062 245.42 26.0578" stroke="#FFFF00" stroke-width="0.851562" stroke-miterlimit="8" fill="none" fill-rule="evenodd" transform="scale(1 1.00143)"/><path d="M275.635 149.928 235.202 32.1891" stroke="#FFFF00" stroke-width="0.851562" stroke-miterlimit="8" fill="none" fill-rule="evenodd" transform="scale(1 1.00143)"/><path d="M275.635 149.792 226.345 37.2984" stroke="#FFFF00" stroke-width="0.851562" stroke-miterlimit="8" fill="none" fill-rule="evenodd" transform="scale(1 1.00143)"/><path d="M218.511 43.0891 275.635 149.792" stroke="#FFFF00" stroke-width="0.851562" stroke-miterlimit="8" fill="none" fill-rule="evenodd" transform="scale(1 1.00143)"/><path d="M207.27 49.9016 275.635 149.096" stroke="#FFFF00" stroke-width="0.851562" stroke-miterlimit="8" fill="none" fill-rule="evenodd" transform="scale(1 1.00143)"/><path d="M195.348 57.3953 275.635 149.963" stroke="#FFFF00" stroke-width="0.851562" stroke-miterlimit="8" fill="none" fill-rule="evenodd" transform="scale(1 1.00143)"/><path d="M183.086 64.8891 275.635 149.534" stroke="#FFFF00" stroke-width="0.851562" stroke-miterlimit="8" fill="none" fill-rule="evenodd" transform="scale(1 1.00143)"/><path d="M172.527 71.7016 275.635 148.925" stroke="#FFFF00" stroke-width="0.851562" stroke-miterlimit="8" fill="none" fill-rule="evenodd" transform="scale(1 1.00143)"/><path d="M160.264 78.1734 275.805 149.062" stroke="#FFFF00" stroke-width="0.851562" stroke-miterlimit="8" fill="none" fill-rule="evenodd" transform="scale(1 1.00143)"/><path d="M147.661 87.7109 275.805 149.773" stroke="#FFFF00" stroke-width="0.851562" stroke-miterlimit="8" fill="none" fill-rule="evenodd" transform="scale(1 1.00143)"/><path d="M138.123 93.5016 275.635 149.32" stroke="#FFFF00" stroke-width="0.851562" stroke-miterlimit="8" fill="none" fill-rule="evenodd" transform="scale(1 1.00143)"/><path d="M69.6578 2.21406 132.199 90.9802" stroke="#FFFF00" stroke-width="0.851562" stroke-miterlimit="8" fill="none" fill-rule="evenodd" transform="scale(1 1.00143)"/><path d="M78.8547 4.93906 137.527 87.5597" stroke="#FFFF00" stroke-width="0.851562" stroke-miterlimit="8" fill="none" fill-rule="evenodd" transform="scale(1 1.00143)"/><path d="M87.7109 2.89531 145.818 84.2611" stroke="#FFFF00" stroke-width="0.851562" stroke-miterlimit="8" fill="none" fill-rule="evenodd" transform="scale(1 1.00143)"/><path d="M96.2266 3.91719 151.141 80.801" stroke="#FFFF00" stroke-width="0.851562" stroke-miterlimit="8" fill="none" fill-rule="evenodd" transform="scale(1 1.00143)"/><path d="M106.786 4.93906 156.706 76.4035" stroke="#FFFF00" stroke-width="0.851562" stroke-miterlimit="8" fill="none" fill-rule="evenodd" transform="scale(1 1.00143)"/><path d="M115.642 6.30156 162.137 72.8382" stroke="#FFFF00" stroke-width="0.851562" stroke-miterlimit="8" fill="none" fill-rule="evenodd" transform="scale(1 1.00143)"/><path d="M124.839 5.27969 170.534 69.7045" stroke="#FFFF00" stroke-width="0.851562" stroke-miterlimit="8" fill="none" fill-rule="evenodd" transform="scale(1 1.00143)"/><path d="M133.355 5.96094 175.73 66.3953" stroke="#FFFF00" stroke-width="0.851562" stroke-miterlimit="8" fill="none" fill-rule="evenodd" transform="scale(1 1.00143)"/><path d="M140.848 3.57656 181.439 61.3847" stroke="#FFFF00" stroke-width="0.851562" stroke-miterlimit="8" fill="none" fill-rule="evenodd" transform="scale(1 1.00143)"/><path d="M149.705 3.57656 186.666 57.8858" stroke="#FFFF00" stroke-width="0.851562" stroke-miterlimit="8" fill="none" fill-rule="evenodd" transform="scale(1 1.00143)"/><path d="M160.264 2.89531 195.052 54.7473" stroke="#FFFF00" stroke-width="0.851562" stroke-miterlimit="8" fill="none" fill-rule="evenodd" transform="scale(1 1.00143)"/><path d="M168.439 4.25781 200.403 51.3029" stroke="#FFFF00" stroke-width="0.851562" stroke-miterlimit="8" fill="none" fill-rule="evenodd" transform="scale(1 1.00143)"/><path d="M176.955 4.93906 205.815 46.8898" stroke="#FFFF00" stroke-width="0.851562" stroke-miterlimit="8" fill="none" fill-rule="evenodd" transform="scale(1 1.00143)"/><path d="M185.47 3.57656 211.531 43.2304" stroke="#FFFF00" stroke-width="0.851562" stroke-miterlimit="8" fill="none" fill-rule="evenodd" transform="scale(1 1.00143)"/><path d="M193.986 3.91719 219.602 40.2118" stroke="#FFFF00" stroke-width="0.851562" stroke-miterlimit="8" fill="none" fill-rule="evenodd" transform="scale(1 1.00143)"/><path d="M204.545 5.27969 224.956 36.6918" stroke="#FFFF00" stroke-width="0.851562" stroke-miterlimit="8" fill="none" fill-rule="evenodd" transform="scale(1 1.00143)"/><path d="M212.38 4.59844 229.867 30.5235" stroke="#FFFF00" stroke-width="0.851562" stroke-miterlimit="8" fill="none" fill-rule="evenodd" transform="scale(1 1.00143)"/><path d="M220.895 4.25781 235.33 27.0619" stroke="#FFFF00" stroke-width="0.851562" stroke-miterlimit="8" fill="none" fill-rule="evenodd" transform="scale(1 1.00143)"/><path d="M229.752 3.91719 243.682 24.3248" stroke="#FFFF00" stroke-width="0.851562" stroke-miterlimit="8" fill="none" fill-rule="evenodd" transform="scale(1 1.00143)"/><path d="M239.289 4.59844 249.11 20.8152" stroke="#FFFF00" stroke-width="0.851562" stroke-miterlimit="8" fill="none" fill-rule="evenodd" transform="scale(1 1.00143)"/><path d="M246.102 4.59844 253.012 15.0716" stroke="#FFFF00" stroke-width="0.851562" stroke-miterlimit="8" fill="none" fill-rule="evenodd" transform="scale(1 1.00143)"/><path d="M253.595 3.91719 258.637 11.6422" stroke="#FFFF00" stroke-width="0.851562" stroke-miterlimit="8" fill="none" fill-rule="evenodd" transform="scale(1 1.00143)"/><path d="M263.814 3.91719 266.601 8.64084" stroke="#FFFF00" stroke-width="0.851562" stroke-miterlimit="8" fill="none" fill-rule="evenodd" transform="scale(1 1.00143)"/><text font-family="Aptos,Aptos_MSFontService,sans-serif" font-weight="400" font-size="30" transform="matrix(0.340625 0 0 0.341111 311.558 27)">Fresnel Lens</text><text font-family="Aptos,Aptos_MSFontService,sans-serif" font-weight="400" font-size="30" transform="matrix(0.340625 0 0 0.341111 27.25 52)">Solar Flux</text><text font-family="Aptos,Aptos_MSFontService,sans-serif" font-weight="400" font-size="30" transform="matrix(0.340625 0 0 0.341111 331.213 91)">Focal point</text><path d="M307.332 23.7842 274.424 9.52401 274.763 8.74265 307.67 23.0029ZM274.437 10.9218 271.989 8.00469 275.792 7.79636Z" fill="#156082" transform="scale(1 1.00143)"/><path d="M75.1313 48.114 108.002 49.9421 107.954 50.7923 75.0843 48.9642ZM107.506 48.6351 110.812 50.5246 107.317 52.0359Z" fill="#156082" transform="scale(1 1.00143)"/><path d="M0.323574-0.276748 49.2792 56.9624 48.632 57.5159-0.323574 0.276748ZM49.8811 55.7007 50.8008 59.3961 47.2924 57.9144Z" fill="#156082" transform="matrix(-1 0 0 1.00143 327.218 88.5183)"/><path d="M205.908 162.648 348.289 162.648 348.289 170.483 205.908 170.483Z" stroke="#042433" stroke-width="0.851562" stroke-miterlimit="8" fill="#156082" transform="scale(1 1.00143)"/><path d="M261.941 147.491 290.553 147.491 290.553 162.137 261.941 162.137Z" stroke="#000000" stroke-width="0.567709" stroke-miterlimit="8" fill="url(#fill2)" transform="scale(1 1.00143)"/><path d="M205.908 149.705 205.908 223.987" stroke="#156082" stroke-width="0.851562" stroke-miterlimit="8" fill="none" fill-rule="evenodd" transform="scale(1 1.00143)"/><path d="M348.289 147.661 348.289 221.943" stroke="#156082" stroke-width="0.851562" stroke-miterlimit="8" fill="none" fill-rule="evenodd" transform="scale(1 1.00143)"/><path d="M279.142 187.514 281.527 187.514 281.527 228.048 279.142 228.048Z" stroke="#000000" stroke-width="0.851562" stroke-miterlimit="8" transform="scale(1 1.00143)"/><path d="M270.286 226.686 292.086 226.686 292.086 261.089 270.286 261.089Z" stroke="#000000" stroke-width="0.851562" stroke-miterlimit="8" transform="scale(1 1.00143)"/><path d="M323.764 170.483 326.148 170.483 326.148 216.467 323.764 216.467Z" stroke="#042433" stroke-width="0.851562" stroke-miterlimit="8" fill="#156082" transform="scale(1 1.00143)"/><path d="M232.136 170.483 234.52 170.483 234.52 216.467 232.136 216.467Z" stroke="#042433" stroke-width="0.851562" stroke-miterlimit="8" fill="#156082" transform="scale(1 1.00143)"/><path d="M228.048 214.423 332.961 214.423 332.961 219.873 228.048 219.873Z" stroke="#042433" stroke-width="0.851562" stroke-miterlimit="8" fill="#156082" transform="scale(1 1.00143)"/><text font-family="Aptos,Aptos_MSFontService,sans-serif" font-weight="400" font-size="30" transform="matrix(0.340625 0 0 0.341111 341.783 128)">Regolith bed</text><text font-family="Aptos,Aptos_MSFontService,sans-serif" font-weight="400" font-size="30" transform="matrix(0.340625 0 0 0.341111 376.074 199)">Print bed</text><text font-family="Aptos,Aptos_MSFontService,sans-serif" font-weight="400" font-size="30" transform="matrix(0.340625 0 0 0.341111 387.403 263)">Z</text><text font-family="Aptos,Aptos_MSFontService,sans-serif" font-weight="400" font-size="30" transform="matrix(0.340625 0 0 0.341111 392.526 263)">-</text><text font-family="Aptos,Aptos_MSFontService,sans-serif" font-weight="400" font-size="30" transform="matrix(0.340625 0 0 0.341111 398.061 263)">Axis</text><text font-family="Aptos,Aptos_MSFontService,sans-serif" font-weight="400" font-size="30" transform="matrix(0.340625 0 0 0.341111 418.172 263)">moto</text><text font-family="Aptos,Aptos_MSFontService,sans-serif" font-weight="400" font-size="30" transform="matrix(0.340625 0 0 0.341111 441.396 263)">r</text><path d="M383.258 260.133 294.812 244.957 294.956 244.118 383.401 259.294ZM295.155 246.312 292.086 244.058 295.731 242.955Z" fill="#156082" transform="scale(1 1.00143)"/><path d="M371.854 196.146 349.747 168.869 350.408 168.332 372.514 195.609ZM349.11 170.114 348.289 166.395 351.757 167.969Z" fill="#156082" transform="scale(1 1.00143)"/><path d="M0.233335-0.356151 44.9128 28.9159 44.4461 29.6282-0.233335 0.356151ZM45.1379 27.5364 47.0539 30.8277 43.2713 30.3856Z" fill="#156082" transform="matrix(-1 0 0 1.00143 337.777 124.335)"/></g></svg>